<svg width="13" height="13" viewBox="0 0 13 13" fill="none" xmlns="http://www.w3.org/2000/svg">
<path d="M12.2333 5.75H7.73334V1.25C7.73334 1.05109 7.65432 0.860322 7.51367 0.71967C7.37301 0.579018 7.18225 0.5 6.98334 0.5C6.78443 0.5 6.59366 0.579018 6.45301 0.71967C6.31236 0.860322 6.23334 1.05109 6.23334 1.25V5.75H1.73334C1.53443 5.75 1.34366 5.82902 1.20301 5.96967C1.06236 6.11032 0.983337 6.30109 0.983337 6.5C0.983337 6.69891 1.06236 6.88968 1.20301 7.03033C1.34366 7.17098 1.53443 7.25 1.73334 7.25H6.23334V11.75C6.23334 11.9489 6.31236 12.1397 6.45301 12.2803C6.59366 12.421 6.78443 12.5 6.98334 12.5C7.18225 12.5 7.37301 12.421 7.51367 12.2803C7.65432 12.1397 7.73334 11.9489 7.73334 11.75V7.25H12.2333C12.4323 7.25 12.623 7.17098 12.7637 7.03033C12.9043 6.88968 12.9833 6.69891 12.9833 6.5C12.9833 6.30109 12.9043 6.11032 12.7637 5.96967C12.623 5.82902 12.4323 5.75 12.2333 5.75Z" fill="#D9D9D9"/>
</svg>
