<svg width="12" height="15" viewBox="0 0 12 15" fill="none" xmlns="http://www.w3.org/2000/svg">
<path d="M7.09999 8.9H4.29999C4.11434 8.9 3.93629 8.97375 3.80501 9.10503C3.67374 9.2363 3.59999 9.41435 3.59999 9.6C3.59999 9.78565 3.67374 9.9637 3.80501 10.095C3.93629 10.2262 4.11434 10.3 4.29999 10.3H7.09999C7.28564 10.3 7.46369 10.2262 7.59496 10.095C7.72624 9.9637 7.79999 9.78565 7.79999 9.6C7.79999 9.41435 7.72624 9.2363 7.59496 9.10503C7.46369 8.97375 7.28564 8.9 7.09999 8.9ZM9.89999 1.9H9.07399C8.92957 1.49152 8.66234 1.1377 8.30893 0.887057C7.95553 0.636415 7.53325 0.501218 7.09999 0.5H5.69999C5.26673 0.501218 4.84445 0.636415 4.49104 0.887057C4.13764 1.1377 3.87041 1.49152 3.72599 1.9H2.89999C2.34303 1.9 1.80889 2.12125 1.41506 2.51508C1.02124 2.9089 0.799988 3.44305 0.799988 4V12.4C0.799988 12.957 1.02124 13.4911 1.41506 13.8849C1.80889 14.2788 2.34303 14.5 2.89999 14.5H9.89999C10.4569 14.5 10.9911 14.2788 11.3849 13.8849C11.7787 13.4911 12 12.957 12 12.4V4C12 3.44305 11.7787 2.9089 11.3849 2.51508C10.9911 2.12125 10.4569 1.9 9.89999 1.9ZM4.99999 2.6C4.99999 2.41435 5.07374 2.2363 5.20501 2.10503C5.33629 1.97375 5.51434 1.9 5.69999 1.9H7.09999C7.28564 1.9 7.46369 1.97375 7.59496 2.10503C7.72624 2.2363 7.79999 2.41435 7.79999 2.6V3.3H4.99999V2.6ZM10.6 12.4C10.6 12.5857 10.5262 12.7637 10.395 12.895C10.2637 13.0263 10.0856 13.1 9.89999 13.1H2.89999C2.71434 13.1 2.53629 13.0263 2.40501 12.895C2.27374 12.7637 2.19999 12.5857 2.19999 12.4V4C2.19999 3.81435 2.27374 3.6363 2.40501 3.50503C2.53629 3.37375 2.71434 3.3 2.89999 3.3H3.59999V4C3.59999 4.18565 3.67374 4.3637 3.80501 4.49497C3.93629 4.62625 4.11434 4.7 4.29999 4.7H8.49999C8.68564 4.7 8.86369 4.62625 8.99496 4.49497C9.12624 4.3637 9.19999 4.18565 9.19999 4V3.3H9.89999C10.0856 3.3 10.2637 3.37375 10.395 3.50503C10.5262 3.6363 10.6 3.81435 10.6 4V12.4ZM8.49999 6.1H4.29999C4.11434 6.1 3.93629 6.17375 3.80501 6.30503C3.67374 6.4363 3.59999 6.61435 3.59999 6.8C3.59999 6.98565 3.67374 7.1637 3.80501 7.29497C3.93629 7.42625 4.11434 7.5 4.29999 7.5H8.49999C8.68564 7.5 8.86369 7.42625 8.99496 7.29497C9.12624 7.1637 9.19999 6.98565 9.19999 6.8C9.19999 6.61435 9.12624 6.4363 8.99496 6.30503C8.86369 6.17375 8.68564 6.1 8.49999 6.1Z" fill="url(#paint0_linear_204_114)"/>
<defs>
<linearGradient id="paint0_linear_204_114" x1="0.799988" y1="14.5" x2="12" y2="14.5" gradientUnits="userSpaceOnUse">
<stop offset="0.0001" stop-color="#6ED34B"/>
<stop offset="1" stop-color="#2BB048"/>
</linearGradient>
</defs>
</svg>
