<svg width="13" height="13" viewBox="0 0 13 13" fill="none" xmlns="http://www.w3.org/2000/svg">
<path d="M8.40389 6.99506L12.7004 2.70859C12.8885 2.52044 12.9942 2.26526 12.9942 1.99918C12.9942 1.73309 12.8885 1.47791 12.7004 1.28976C12.5122 1.10161 12.257 0.995911 11.9909 0.995911C11.7249 0.995911 11.4697 1.10161 11.2815 1.28976L6.99505 5.58622L2.70859 1.28976C2.52044 1.10161 2.26525 0.995911 1.99917 0.995911C1.73309 0.995911 1.47791 1.10161 1.28976 1.28976C1.10161 1.47791 0.995907 1.73309 0.995907 1.99918C0.995907 2.26526 1.10161 2.52044 1.28976 2.70859L5.58622 6.99506L1.28976 11.2815C1.19611 11.3744 1.12177 11.4849 1.07105 11.6067C1.02032 11.7284 0.994202 11.859 0.994202 11.9909C0.994202 12.1228 1.02032 12.2534 1.07105 12.3752C1.12177 12.497 1.19611 12.6075 1.28976 12.7004C1.38264 12.794 1.49315 12.8683 1.61491 12.9191C1.73667 12.9698 1.86727 12.9959 1.99917 12.9959C2.13107 12.9959 2.26167 12.9698 2.38343 12.9191C2.50519 12.8683 2.6157 12.794 2.70859 12.7004L6.99505 8.4039L11.2815 12.7004C11.3744 12.794 11.4849 12.8683 11.6067 12.9191C11.7284 12.9698 11.859 12.9959 11.9909 12.9959C12.1228 12.9959 12.2534 12.9698 12.3752 12.9191C12.497 12.8683 12.6075 12.794 12.7004 12.7004C12.794 12.6075 12.8683 12.497 12.9191 12.3752C12.9698 12.2534 12.9959 12.1228 12.9959 11.9909C12.9959 11.859 12.9698 11.7284 12.9191 11.6067C12.8683 11.4849 12.794 11.3744 12.7004 11.2815L8.40389 6.99506Z" fill="#D9D9D9"/>
</svg>
