<svg width="48" height="20" viewBox="0 0 48 20" fill="none" xmlns="http://www.w3.org/2000/svg">
<path d="M9.76786 20C13.3472 20 16.5856 17.967 18.2825 14.963C18.8222 14.0075 18.0898 12.8889 17.0061 12.8889C16.3817 12.8889 15.8911 13.2466 15.5491 13.7778C14.348 15.6429 12.1122 16.7742 9.76786 16.7742C6.02066 16.7742 3.16411 13.7919 3.16411 9.92593C3.16411 6.05994 6.02066 2.90323 9.76786 2.90323H28.4863C32.2255 2.90323 35.2193 6.05994 35.2193 9.92593C35.2193 13.7919 32.2255 16.7742 28.4863 16.7742C26.147 16.7742 24.1762 15.6429 22.9777 13.7778C22.6364 13.2466 21.971 12.8889 21.3479 12.8889C20.5279 12.8889 19.9373 13.5069 19.9202 14.2222V18.5185C19.9202 19.3367 20.5432 20 21.3479 20C22.1526 20 22.7756 19.3367 22.7756 18.5185V18.0571C24.3794 19.273 26.3733 20 28.4863 20C33.8281 20 38.1334 15.4488 38.1334 9.92593C38.1334 4.40308 33.8586 2.26056e-06 28.5169 0H9.86656C4.51342 0 0.25 4.40308 0.25 9.92593C0.25 15.4488 4.41472 20 9.76786 20Z" fill="url(#paint0_linear_702_13)"/>
<path d="M36.6764 1.48148C36.6764 0.663284 37.3287 2.26056e-06 38.1334 2.26056e-06L46.2735 0C47.089 0 47.75 0.663282 47.75 1.48148C47.75 2.29968 47.0684 2.90323 46.253 2.90323H44.984C46.685 4.69593 47.75 7.2171 47.75 9.9369C47.75 15.4039 43.4049 20 38.0042 20C37.1995 20 36.6764 19.3367 36.6764 18.5185C36.6764 17.7003 37.1995 16.9355 38.0042 16.9355C41.6876 16.9355 44.8359 13.8792 44.8359 9.9369C44.8359 6.02355 41.7153 2.90323 38.0042 2.90323C37.1995 2.90323 36.6764 2.29968 36.6764 1.48148Z" fill="url(#paint1_linear_702_13)"/>
<defs>
<linearGradient id="paint0_linear_702_13" x1="0.25" y1="20" x2="47.75" y2="20" gradientUnits="userSpaceOnUse">
<stop offset="0.0001" stop-color="#6ED34B"/>
<stop offset="1" stop-color="#2BB048"/>
</linearGradient>
<linearGradient id="paint1_linear_702_13" x1="0.25" y1="20" x2="47.75" y2="20" gradientUnits="userSpaceOnUse">
<stop offset="0.0001" stop-color="#6ED34B"/>
<stop offset="1" stop-color="#2BB048"/>
</linearGradient>
</defs>
</svg>
