<svg width="13" height="13" viewBox="0 0 13 13" fill="none" xmlns="http://www.w3.org/2000/svg">
<path d="M11.85 5.75H7.35001V1.25C7.35001 1.05109 7.27099 0.860322 7.13034 0.71967C6.98968 0.579018 6.79892 0.5 6.60001 0.5C6.40109 0.5 6.21033 0.579018 6.06968 0.71967C5.92902 0.860322 5.85001 1.05109 5.85001 1.25V5.75H1.35001C1.15109 5.75 0.960328 5.82902 0.819676 5.96967C0.679024 6.11032 0.600006 6.30109 0.600006 6.5C0.600006 6.69891 0.679024 6.88968 0.819676 7.03033C0.960328 7.17098 1.15109 7.25 1.35001 7.25H5.85001V11.75C5.85001 11.9489 5.92902 12.1397 6.06968 12.2803C6.21033 12.421 6.40109 12.5 6.60001 12.5C6.79892 12.5 6.98968 12.421 7.13034 12.2803C7.27099 12.1397 7.35001 11.9489 7.35001 11.75V7.25H11.85C12.0489 7.25 12.2397 7.17098 12.3803 7.03033C12.521 6.88968 12.6 6.69891 12.6 6.5C12.6 6.30109 12.521 6.11032 12.3803 5.96967C12.2397 5.82902 12.0489 5.75 11.85 5.75Z" fill="url(#paint0_linear_771_2)"/>
<defs>
<linearGradient id="paint0_linear_771_2" x1="0.600006" y1="12.5" x2="12.6" y2="12.5" gradientUnits="userSpaceOnUse">
<stop offset="0.0001" stop-color="#6ED34B"/>
<stop offset="1" stop-color="#2BB048"/>
</linearGradient>
</defs>
</svg>
