<svg width="32" height="25" viewBox="0 0 32 25" fill="none" xmlns="http://www.w3.org/2000/svg">
<path d="M16.9363 12.8106C17.6896 12.1585 18.2938 11.3521 18.7079 10.4459C19.122 9.53976 19.3363 8.55512 19.3363 7.55882C19.3363 5.68671 18.5926 3.89127 17.2688 2.56748C15.945 1.2437 14.1496 0.5 12.2775 0.5C10.4053 0.5 8.6099 1.2437 7.28611 2.56748C5.96233 3.89127 5.21863 5.68671 5.21863 7.55882C5.21862 8.55512 5.43294 9.53976 5.84704 10.4459C6.26115 11.3521 6.86535 12.1585 7.61863 12.8106C5.64236 13.7055 3.96564 15.1506 2.78896 16.9732C1.61227 18.7958 0.985415 20.9188 0.983337 23.0882C0.983337 23.4627 1.13208 23.8217 1.39683 24.0865C1.66159 24.3513 2.02068 24.5 2.3951 24.5C2.76953 24.5 3.12861 24.3513 3.39337 24.0865C3.65813 23.8217 3.80687 23.4627 3.80687 23.0882C3.80687 20.8417 4.6993 18.6872 6.28784 17.0986C7.87639 15.5101 10.0309 14.6176 12.2775 14.6176C14.524 14.6176 16.6785 15.5101 18.2671 17.0986C19.8556 18.6872 20.748 20.8417 20.748 23.0882C20.748 23.4627 20.8968 23.8217 21.1615 24.0865C21.4263 24.3513 21.7854 24.5 22.1598 24.5C22.5342 24.5 22.8933 24.3513 23.1581 24.0865C23.4228 23.8217 23.5716 23.4627 23.5716 23.0882C23.5695 20.9188 22.9426 18.7958 21.766 16.9732C20.5893 15.1506 18.9125 13.7055 16.9363 12.8106ZM12.2775 11.7941C11.4398 11.7941 10.6209 11.5457 9.92445 11.0803C9.22796 10.615 8.68511 9.9535 8.36455 9.1796C8.04399 8.4057 7.96012 7.55413 8.12354 6.73256C8.28696 5.91099 8.69033 5.15634 9.28265 4.56402C9.87497 3.9717 10.6296 3.56833 11.4512 3.40491C12.2728 3.24149 13.1243 3.32536 13.8982 3.64592C14.6721 3.96648 15.3336 4.50933 15.799 5.20582C16.2644 5.90231 16.5127 6.72116 16.5127 7.55882C16.5127 8.68209 16.0665 9.75936 15.2723 10.5536C14.478 11.3479 13.4007 11.7941 12.2775 11.7941ZM26.028 12.2459C26.9315 11.2285 27.5217 9.97161 27.7275 8.6266C27.9334 7.28159 27.7461 5.90575 27.1882 4.66471C26.6303 3.42366 25.7256 2.3703 24.5831 1.63142C23.4405 0.892541 22.1087 0.499636 20.748 0.5C20.3736 0.5 20.0145 0.648739 19.7498 0.913496C19.485 1.17825 19.3363 1.53734 19.3363 1.91177C19.3363 2.28619 19.485 2.64528 19.7498 2.91003C20.0145 3.17479 20.3736 3.32353 20.748 3.32353C21.8713 3.32353 22.9486 3.76975 23.7428 4.56402C24.5371 5.35829 24.9833 6.43555 24.9833 7.55882C24.9813 8.30034 24.7847 9.02833 24.4131 9.67001C24.0414 10.3117 23.5079 10.8445 22.8657 11.2153C22.6564 11.336 22.4816 11.5085 22.358 11.7161C22.2344 11.9237 22.1661 12.1596 22.1598 12.4012C22.1539 12.6408 22.2091 12.8781 22.3203 13.0905C22.4314 13.3029 22.5948 13.4835 22.7951 13.6153L23.3457 13.9824L23.5292 14.0812C25.231 14.8883 26.6666 16.1649 27.6671 17.7607C28.6675 19.3564 29.1912 21.2049 29.1763 23.0882C29.1763 23.4627 29.325 23.8217 29.5898 24.0865C29.8545 24.3513 30.2136 24.5 30.588 24.5C30.9625 24.5 31.3216 24.3513 31.5863 24.0865C31.8511 23.8217 31.9998 23.4627 31.9998 23.0882C32.0113 20.9218 31.4687 18.7884 30.4235 16.8907C29.3783 14.993 27.8652 13.3941 26.028 12.2459Z" fill="url(#paint0_linear_703_21)"/>
<defs>
<linearGradient id="paint0_linear_703_21" x1="0.983337" y1="24.5" x2="32" y2="24.5" gradientUnits="userSpaceOnUse">
<stop offset="0.0001" stop-color="#6ED34B"/>
<stop offset="1" stop-color="#2BB048"/>
</linearGradient>
</defs>
</svg>
