<svg width="24" height="27" viewBox="0 0 24 27" fill="none" xmlns="http://www.w3.org/2000/svg">
<path d="M11.9801 11.9156C11.7183 11.9156 11.4623 11.9933 11.2446 12.1387C11.0269 12.2842 10.8572 12.491 10.757 12.7329C10.6568 12.9748 10.6305 13.241 10.6816 13.4979C10.7327 13.7547 10.8588 13.9906 11.044 14.1757C11.2291 14.3609 11.465 14.487 11.7218 14.5381C11.9787 14.5892 12.2449 14.563 12.4868 14.4627C12.7287 14.3625 12.9355 14.1928 13.081 13.9751C13.2264 13.7574 13.3041 13.5014 13.3041 13.2396C13.3041 12.8884 13.1646 12.5517 12.9163 12.3034C12.668 12.0551 12.3313 11.9156 11.9801 11.9156ZM22.0687 13.2396L22.2143 13.0542C24.0017 10.5917 24.4253 8.32769 23.4456 6.61978C22.4659 4.91188 20.2681 4.15722 17.276 4.46173H17.0377C15.8329 1.72114 14.0455 0 11.9801 0C9.91477 0 8.12743 1.72114 6.93586 4.50145L6.68431 4.46173C3.69217 4.15722 1.4944 4.91188 0.514673 6.61978C-0.465055 8.32769 -0.0413891 10.5917 1.74595 13.0542L1.89159 13.2396L1.74595 13.4249C-0.0413891 15.8875 -0.465055 18.1514 0.514673 19.8594C1.38848 21.3157 3.06991 22.0836 5.36036 22.0836C5.77078 22.0836 6.19445 22.0836 6.68431 22.0174H6.92263C8.12743 24.758 9.91477 26.4791 11.9801 26.4791C14.0455 26.4791 15.8329 24.758 17.0244 21.9777H17.2627C17.7129 21.9777 18.1365 22.0439 18.5867 22.0439C20.9301 22.0439 22.6512 21.276 23.4853 19.8196C24.4651 18.1117 24.0414 15.8478 22.254 13.3852L22.0687 13.2396ZM2.80512 7.94374C3.13611 7.3612 4.12908 7.04345 5.45303 7.04345H6.10177C5.8943 7.85791 5.73952 8.68489 5.63839 9.51925C4.96389 10.0295 4.32267 10.5822 3.71865 11.1742C2.71244 9.85024 2.42117 8.60572 2.80512 7.94374ZM2.80512 18.5354C2.42117 17.8734 2.80512 16.6289 3.69217 15.2652C4.29619 15.8572 4.93741 16.41 5.61191 16.9202C5.71306 17.7589 5.86784 18.5903 6.07529 19.4092C4.43359 19.5151 3.18907 19.1974 2.80512 18.5354ZM11.9801 2.64791C12.7216 2.64791 13.6086 3.52173 14.3633 5.07076C13.5544 5.30551 12.7589 5.58395 11.9801 5.90485C11.2014 5.58395 10.4059 5.30551 9.59702 5.07076C10.3517 3.52173 11.2387 2.64791 11.9801 2.64791ZM11.9801 23.8312C11.2387 23.8312 10.3517 22.9574 9.59702 21.4084C10.4059 21.1736 11.2014 20.8952 11.9801 20.5743C12.7589 20.8952 13.5544 21.1736 14.3633 21.4084C13.6086 22.9574 12.7216 23.8312 11.9801 23.8312ZM15.8593 15.4771C15.2503 15.9007 14.6281 16.2979 13.9661 16.6819C13.3041 17.0658 12.6421 17.41 11.9801 17.7145C11.3182 17.4056 10.6562 17.0614 9.9942 16.6819C9.33223 16.2979 8.67025 15.9007 8.10095 15.4771C8.00827 14.7621 8.00827 14.0207 8.00827 13.2396C8.00827 12.4584 8.00827 11.717 8.10095 11.0021C8.70997 10.5784 9.33223 10.1812 9.9942 9.79728C10.6562 9.41333 11.3182 9.06911 11.9801 8.7646C12.6421 9.07352 13.3041 9.41775 13.9661 9.79728C14.6281 10.1812 15.29 10.5784 15.8593 11.0021C15.8593 11.717 15.952 12.4584 15.952 13.2396C15.952 14.0207 15.952 14.7621 15.8593 15.4771ZM21.1552 18.5354C20.7712 19.1974 19.5267 19.5284 17.885 19.4092C18.0924 18.5903 18.2472 17.7589 18.3484 16.9202C19.0229 16.41 19.6641 15.8572 20.2681 15.2652C21.2478 16.6289 21.5391 17.8734 21.1552 18.5354ZM20.2681 11.2139C19.6641 10.622 19.0229 10.0692 18.3484 9.55897C18.2472 8.72461 18.0925 7.89763 17.885 7.08317H18.5337C19.8577 7.08317 20.8242 7.40092 21.1816 7.98346C21.5391 8.566 21.2478 9.85024 20.2681 11.2139Z" fill="url(#paint0_linear_204_105)"/>
<defs>
<linearGradient id="paint0_linear_204_105" x1="0" y1="26.4791" x2="24" y2="26.4791" gradientUnits="userSpaceOnUse">
<stop offset="0.0001" stop-color="#6ED34B"/>
<stop offset="1" stop-color="#2BB048"/>
</linearGradient>
</defs>
</svg>
