<svg width="15" height="16" viewBox="0 0 15 16" fill="none" xmlns="http://www.w3.org/2000/svg">
<path d="M10.3536 9.2051L10.3502 9.2044C10.194 9.1716 10.0329 9.16989 9.87607 9.19936C9.71922 9.22882 9.56971 9.2889 9.43607 9.37615C9.30243 9.4634 9.18729 9.57611 9.09722 9.70786C9.00714 9.83961 8.9439 9.98781 8.9111 10.144C8.8783 10.3002 8.87659 10.4613 8.90606 10.6182C8.93552 10.775 8.9956 10.9245 9.08285 11.0582C9.1701 11.1918 9.28281 11.3069 9.41456 11.397C9.54631 11.4871 9.69451 11.5503 9.8507 11.5831L9.85069 11.5832L9.85623 11.5843C10.6104 11.7338 11.1179 11.9383 11.4234 12.1142C11.478 12.1457 11.5246 12.1753 11.5641 12.2026C11.3989 12.3152 11.1381 12.4505 10.7747 12.582C10.0095 12.8589 8.84295 13.0999 7.30032 13.0999C5.7577 13.0999 4.59118 12.8589 3.82591 12.582C3.4615 12.4501 3.20023 12.3145 3.03514 12.2017C3.07567 12.1732 3.1238 12.1421 3.18037 12.1089C3.48741 11.9291 3.99635 11.7179 4.75151 11.5548C4.90712 11.5219 5.05477 11.4588 5.18608 11.369C5.31783 11.2789 5.43055 11.1638 5.5178 11.0302C5.60505 10.8965 5.66512 10.747 5.69459 10.5902C5.72406 10.4333 5.72234 10.2722 5.68954 10.116C5.65674 9.95981 5.5935 9.81161 5.50343 9.67986C5.41335 9.54811 5.29821 9.4354 5.16457 9.34815C5.03094 9.2609 4.88143 9.20082 4.72457 9.17135C4.56772 9.14189 4.4066 9.1436 4.25041 9.1764L4.25039 9.17631L4.24098 9.17848C3.13872 9.43229 2.22626 9.80564 1.57757 10.2946C0.923602 10.7876 0.5 11.4318 0.5 12.1999C0.5 13.4534 1.57458 14.2718 2.79227 14.7551C4.052 15.255 5.69401 15.5 7.30032 15.5C8.90663 15.5 10.5486 15.255 11.8084 14.7551C13.0261 14.2718 14.1006 13.4534 14.1006 12.1999C14.1006 11.4318 13.677 10.7871 13.0215 10.297C12.3714 9.81088 11.4574 9.44477 10.3536 9.2051ZM11.7371 12.0549C11.7372 12.0549 11.7362 12.0566 11.7335 12.0601C11.7356 12.0567 11.7369 12.0549 11.7371 12.0549ZM2.86358 12.0549C2.86373 12.0549 2.86508 12.0567 2.86717 12.0601C2.86448 12.0566 2.86343 12.0549 2.86358 12.0549ZM4.07842 6.871C4.58392 7.55797 5.2934 8.06239 6.10029 8.31612V11.4998C6.10029 11.8181 6.22672 12.1233 6.45177 12.3484C6.67682 12.5734 6.98205 12.6999 7.30032 12.6999C7.61859 12.6999 7.92382 12.5734 8.14888 12.3484C8.37393 12.1233 8.50036 11.8181 8.50036 11.4998V8.31612C9.30724 8.06239 10.0167 7.55797 10.5222 6.871C11.1097 6.07256 11.3799 5.08441 11.2802 4.09812C11.1806 3.11184 10.7183 2.19768 9.98296 1.53288C9.24762 0.86808 8.29163 0.5 7.30032 0.5C6.30902 0.5 5.35302 0.86808 4.61768 1.53288C3.88234 2.19768 3.42003 3.11184 3.3204 4.09812C3.22076 5.08441 3.49089 6.07256 4.07842 6.871ZM7.30032 2.89936C7.61679 2.89936 7.92616 2.9932 8.18929 3.16902C8.45243 3.34485 8.65752 3.59475 8.77863 3.88713C8.89974 4.17951 8.93142 4.50124 8.86968 4.81163C8.80794 5.12202 8.65555 5.40713 8.43177 5.63091C8.20799 5.85469 7.92288 6.00709 7.61249 6.06883C7.3021 6.13057 6.98037 6.09888 6.68799 5.97777C6.39561 5.85666 6.1457 5.65157 5.96988 5.38844C5.79406 5.1253 5.70021 4.81594 5.70021 4.49946C5.70021 4.07509 5.8688 3.6681 6.16887 3.36802C6.46895 3.06794 6.87595 2.89936 7.30032 2.89936Z" fill="url(#paint0_linear_710_100)" stroke="black"/>
<defs>
<linearGradient id="paint0_linear_710_100" x1="1" y1="15" x2="13.6006" y2="15" gradientUnits="userSpaceOnUse">
<stop offset="0.0001" stop-color="#6ED34B"/>
<stop offset="1" stop-color="#2BB048"/>
</linearGradient>
</defs>
</svg>
