<svg width="15" height="18" viewBox="0 0 15 18" fill="none" xmlns="http://www.w3.org/2000/svg">
<path d="M11.7351 9.71638C11.6253 9.67268 11.5079 9.65104 11.3897 9.6527C11.2715 9.65436 11.1548 9.67929 11.0462 9.72606C10.9376 9.77283 10.8393 9.84052 10.7569 9.92528C10.6745 10.01 10.6096 10.1102 10.5659 10.2201C10.5222 10.3299 10.5005 10.4473 10.5022 10.5655C10.5039 10.6837 10.5288 10.8004 10.5756 10.909C10.6223 11.0176 10.69 11.1159 10.7748 11.1983C10.8595 11.2807 10.9597 11.3456 11.0696 11.3893C12.3827 11.911 13.2012 12.7204 13.2012 13.5029C13.2012 14.7801 10.9886 16.2012 7.80467 16.2012C4.62074 16.2012 2.40818 14.7801 2.40818 13.5029C2.40818 12.7204 3.22665 11.911 4.53979 11.3893C4.76163 11.301 4.93933 11.1283 5.03379 10.909C5.12824 10.6897 5.13173 10.4419 5.04347 10.2201C4.95521 9.99821 4.78243 9.82051 4.56316 9.72606C4.34388 9.6316 4.09607 9.62812 3.87422 9.71638C1.83255 10.5259 0.609344 11.9379 0.609344 13.5029C0.609344 16.0213 3.7663 18 7.80467 18C11.8431 18 15 16.0213 15 13.5029C15 11.9379 13.7768 10.5259 11.7351 9.71638ZM6.90526 7.08109V13.5029C6.90526 13.7415 7.00002 13.9702 7.16869 14.1389C7.33736 14.3076 7.56613 14.4023 7.80467 14.4023C8.04321 14.4023 8.27198 14.3076 8.44066 14.1389C8.60933 13.9702 8.70409 13.7415 8.70409 13.5029V7.08109C9.55193 6.86218 10.2908 6.34156 10.7823 5.61683C11.2737 4.8921 11.484 4.01301 11.3737 3.14434C11.2633 2.27567 10.84 1.47707 10.1829 0.898212C9.52591 0.319358 8.68032 0 7.80467 0C6.92903 0 6.08344 0.319358 5.42641 0.898212C4.76938 1.47707 4.34602 2.27567 4.23568 3.14434C4.12535 4.01301 4.33561 4.8921 4.82706 5.61683C5.31852 6.34156 6.05742 6.86218 6.90526 7.08109ZM7.80467 1.81051C8.16045 1.81051 8.50823 1.91601 8.80405 2.11367C9.09987 2.31133 9.33043 2.59226 9.46658 2.92096C9.60273 3.24965 9.63835 3.61134 9.56894 3.96028C9.49953 4.30922 9.32821 4.62974 9.07664 4.88131C8.82507 5.13288 8.50455 5.3042 8.15561 5.37361C7.80667 5.44302 7.44498 5.4074 7.11629 5.27125C6.7876 5.1351 6.50666 4.90454 6.309 4.60872C6.11134 4.3129 6.00584 3.96512 6.00584 3.60934C6.00584 3.13226 6.19536 2.67472 6.53271 2.33738C6.87005 2.00003 7.32759 1.81051 7.80467 1.81051Z" fill="url(#paint0_linear_710_114)"/>
<defs>
<linearGradient id="paint0_linear_710_114" x1="0.609344" y1="18" x2="15" y2="18" gradientUnits="userSpaceOnUse">
<stop offset="0.0001" stop-color="#6ED34B"/>
<stop offset="1" stop-color="#2BB048"/>
</linearGradient>
</defs>
</svg>
