<svg width="19" height="19" viewBox="0 0 19 19" fill="none" xmlns="http://www.w3.org/2000/svg">
<path d="M18.7471 16.9825L15.4075 13.67C16.7038 12.0537 17.3316 10.0021 17.1617 7.93721C16.9919 5.87227 16.0373 3.95088 14.4943 2.56813C12.9513 1.18538 10.9372 0.446361 8.86607 0.503034C6.79493 0.559708 4.82422 1.40777 3.35916 2.87283C1.89409 4.33789 1.04604 6.3086 0.989362 8.37974C0.932689 10.4509 1.67171 12.465 3.05446 14.008C4.43721 15.551 6.3586 16.5056 8.42354 16.6754C10.4885 16.8453 12.54 16.2175 14.1563 14.9212L17.4689 18.2337C17.5525 18.3181 17.6521 18.3851 17.7618 18.4308C17.8715 18.4765 17.9891 18.5 18.108 18.5C18.2268 18.5 18.3444 18.4765 18.4541 18.4308C18.5638 18.3851 18.6634 18.3181 18.7471 18.2337C18.9093 18.0659 19 17.8416 19 17.6081C19 17.3747 18.9093 17.1504 18.7471 16.9825ZM9.10648 14.9212C7.86025 14.9212 6.64201 14.5516 5.60581 13.8593C4.56961 13.1669 3.76199 12.1828 3.28508 11.0315C2.80817 9.88009 2.68338 8.61316 2.92651 7.39088C3.16964 6.1686 3.76975 5.04586 4.65097 4.16464C5.53219 3.28343 6.65493 2.68331 7.87721 2.44018C9.09949 2.19706 10.3664 2.32184 11.5178 2.79875C12.6691 3.27566 13.6532 4.08328 14.3456 5.11948C15.038 6.15568 15.4075 7.37392 15.4075 8.62015C15.4075 10.2913 14.7437 11.894 13.562 13.0757C12.3803 14.2573 10.7776 14.9212 9.10648 14.9212Z" fill="url(#paint0_linear_710_226)"/>
<defs>
<linearGradient id="paint0_linear_710_226" x1="0.986328" y1="18.5" x2="19" y2="18.5" gradientUnits="userSpaceOnUse">
<stop offset="0.0001" stop-color="#6ED34B"/>
<stop offset="1" stop-color="#2BB048"/>
</linearGradient>
</defs>
</svg>
