<svg width="12" height="13" viewBox="0 0 12 13" fill="none" xmlns="http://www.w3.org/2000/svg">
<path d="M9.60387 7.70775C9.24994 7.71009 8.90093 7.79081 8.58192 7.9441C8.26291 8.09739 7.98182 8.31945 7.75885 8.59431L4.70379 7.18659C4.84743 6.74675 4.84743 6.27262 4.70379 5.83278L7.75885 4.42506C8.11924 4.85993 8.62166 5.15353 9.17745 5.25402C9.73323 5.35451 10.3067 5.25545 10.7965 4.97431C11.2864 4.69317 11.6612 4.24803 11.8548 3.71745C12.0483 3.18686 12.0483 2.60495 11.8546 2.0744C11.6609 1.54386 11.286 1.09878 10.7961 0.817732C10.3062 0.536681 9.73278 0.437721 9.17702 0.538317C8.62125 0.638912 8.11888 0.932596 7.75857 1.36754C7.39826 1.80248 7.20317 2.35072 7.20774 2.9155C7.20954 3.05821 7.22357 3.2005 7.24967 3.34081L4.08679 4.79646C3.74958 4.46674 3.32257 4.24386 2.85926 4.15575C2.39594 4.06764 1.91693 4.11821 1.48223 4.30114C1.04753 4.48406 0.67648 4.7912 0.415564 5.18407C0.154649 5.57694 0.0154724 6.03807 0.0154724 6.50969C0.0154724 6.9813 0.154649 7.44244 0.415564 7.83531C0.67648 8.22818 1.04753 8.53531 1.48223 8.71824C1.91693 8.90116 2.39594 8.95173 2.85926 8.86362C3.32257 8.77551 3.74958 8.55263 4.08679 8.22292L7.24967 9.67856C7.22357 9.81887 7.20954 9.96117 7.20774 10.1039C7.20774 10.5778 7.34827 11.041 7.61156 11.4351C7.87485 11.8291 8.24907 12.1362 8.68691 12.3176C9.12474 12.499 9.60652 12.5464 10.0713 12.454C10.5361 12.3615 10.9631 12.1333 11.2982 11.7982C11.6333 11.4631 11.8615 11.0361 11.9539 10.5713C12.0464 10.1065 11.999 9.62475 11.8176 9.18692C11.6362 8.74908 11.3291 8.37486 10.9351 8.11157C10.541 7.84828 10.0778 7.70775 9.60387 7.70775ZM9.60387 1.71744C9.84082 1.71744 10.0725 1.7877 10.2695 1.91935C10.4665 2.05099 10.6201 2.2381 10.7107 2.45702C10.8014 2.67594 10.8251 2.91683 10.7789 3.14923C10.7327 3.38163 10.6186 3.5951 10.451 3.76266C10.2835 3.93021 10.07 4.04431 9.8376 4.09054C9.60519 4.13677 9.3643 4.11304 9.14539 4.02236C8.92647 3.93169 8.73936 3.77813 8.60771 3.58111C8.47607 3.38409 8.4058 3.15245 8.4058 2.9155C8.4058 2.59775 8.53203 2.29302 8.75671 2.06834C8.98139 1.84366 9.28612 1.71744 9.60387 1.71744ZM2.41549 7.70775C2.17854 7.70775 1.9469 7.63748 1.74988 7.50584C1.55286 7.37419 1.3993 7.18708 1.30862 6.96816C1.21795 6.74925 1.19422 6.50836 1.24045 6.27596C1.28668 6.04355 1.40078 5.83008 1.56833 5.66253C1.73588 5.49498 1.94936 5.38087 2.18176 5.33464C2.41416 5.28842 2.65505 5.31214 2.87397 5.40282C3.09289 5.4935 3.28 5.64706 3.41164 5.84408C3.54329 6.0411 3.61355 6.27273 3.61355 6.50969C3.61355 6.82743 3.48733 7.13216 3.26265 7.35684C3.03797 7.58152 2.73324 7.70775 2.41549 7.70775ZM9.60387 11.3019C9.36691 11.3019 9.13528 11.2317 8.93826 11.1C8.74124 10.9684 8.58768 10.7813 8.497 10.5624C8.40632 10.3434 8.3826 10.1025 8.42882 9.87014C8.47505 9.63774 8.58916 9.42427 8.75671 9.25672C8.92426 9.08916 9.13773 8.97506 9.37014 8.92883C9.60254 8.8826 9.84343 8.90633 10.0623 8.99701C10.2813 9.08769 10.4684 9.24124 10.6 9.43827C10.7317 9.63529 10.8019 9.86692 10.8019 10.1039C10.8019 10.4216 10.6757 10.7264 10.451 10.951C10.2263 11.1757 9.92161 11.3019 9.60387 11.3019Z" fill="#D9D9D9"/>
</svg>
