<svg width="18" height="18" viewBox="0 0 18 18" fill="none" xmlns="http://www.w3.org/2000/svg">
<path d="M9.04336 12.1279L5.52783 15.6434C5.1022 16.0542 4.53375 16.2837 3.94222 16.2837C3.35069 16.2837 2.78224 16.0542 2.35661 15.6434C2.14786 15.4355 1.98222 15.1884 1.8692 14.9163C1.75617 14.6442 1.69799 14.3524 1.69799 14.0578C1.69799 13.7631 1.75617 13.4714 1.8692 13.1993C1.98222 12.9272 2.14786 12.6801 2.35661 12.4722L5.87214 8.95664C6.04275 8.78602 6.13861 8.55462 6.13861 8.31333C6.13861 8.07205 6.04275 7.84064 5.87214 7.67003C5.70152 7.49941 5.47012 7.40356 5.22883 7.40356C4.98755 7.40356 4.75614 7.49941 4.58553 7.67003L1.07 11.1946C0.361779 11.9655 -0.0212465 12.9802 0.000910357 14.0267C0.0230672 15.0733 0.448694 16.0709 1.1889 16.8111C1.92911 17.5513 2.92667 17.9769 3.97325 17.9991C5.01983 18.0212 6.03451 17.6382 6.80539 16.93L10.33 13.4145C10.4145 13.33 10.4815 13.2297 10.5272 13.1193C10.5729 13.0089 10.5964 12.8906 10.5964 12.7712C10.5964 12.6517 10.5729 12.5334 10.5272 12.423C10.4815 12.3126 10.4145 12.2123 10.33 12.1279C10.2455 12.0434 10.1452 11.9764 10.0348 11.9306C9.92445 11.8849 9.80614 11.8614 9.68667 11.8614C9.5672 11.8614 9.44889 11.8849 9.33852 11.9306C9.22814 11.9764 9.12784 12.0434 9.04336 12.1279ZM16.8174 1.18261C16.0552 0.425142 15.0243 0 13.9497 0C12.8751 0 11.8442 0.425142 11.082 1.18261L7.55742 4.69814C7.47294 4.78262 7.40593 4.88291 7.36021 4.99329C7.31449 5.10366 7.29095 5.22197 7.29095 5.34144C7.29095 5.46091 7.31449 5.57922 7.36021 5.6896C7.40593 5.79997 7.47294 5.90027 7.55742 5.98475C7.6419 6.06923 7.74219 6.13624 7.85257 6.18196C7.96295 6.22768 8.08125 6.25121 8.20073 6.25121C8.3202 6.25121 8.4385 6.22768 8.54888 6.18196C8.65926 6.13624 8.75955 6.06923 8.84403 5.98475L12.3596 2.46922C12.7852 2.05843 13.3536 1.82886 13.9452 1.82886C14.5367 1.82886 15.1052 2.05843 15.5308 2.46922C15.7395 2.67715 15.9052 2.92425 16.0182 3.19635C16.1312 3.46845 16.1894 3.76019 16.1894 4.05483C16.1894 4.34947 16.1312 4.64121 16.0182 4.91331C15.9052 5.18541 15.7395 5.43251 15.5308 5.64044L12.0153 9.15597C11.9303 9.2402 11.8629 9.34041 11.8169 9.45083C11.7709 9.56124 11.7472 9.67967 11.7472 9.79928C11.7472 9.91889 11.7709 10.0373 11.8169 10.1477C11.8629 10.2581 11.9303 10.3584 12.0153 10.4426C12.0995 10.5275 12.1997 10.5949 12.3101 10.6409C12.4205 10.6869 12.5389 10.7106 12.6586 10.7106C12.7782 10.7106 12.8966 10.6869 13.007 10.6409C13.1174 10.5949 13.2176 10.5275 13.3019 10.4426L16.8174 6.91799C17.5749 6.15579 18 5.12487 18 4.0503C18 2.97573 17.5749 1.9448 16.8174 1.18261ZM6.07147 11.9285C6.15614 12.0125 6.25654 12.0789 6.36694 12.124C6.47733 12.1691 6.59553 12.192 6.71478 12.1913C6.83402 12.192 6.95223 12.1691 7.06262 12.124C7.17302 12.0789 7.27342 12.0125 7.35809 11.9285L11.8159 7.47069C11.9865 7.30008 12.0824 7.06867 12.0824 6.82739C12.0824 6.5861 11.9865 6.3547 11.8159 6.18408C11.6453 6.01346 11.4139 5.91761 11.1726 5.91761C10.9313 5.91761 10.6999 6.01346 10.5293 6.18408L6.07147 10.6419C5.98655 10.7261 5.91914 10.8264 5.87314 10.9368C5.82714 11.0472 5.80346 11.1656 5.80346 11.2852C5.80346 11.4048 5.82714 11.5233 5.87314 11.6337C5.91914 11.7441 5.98655 11.8443 6.07147 11.9285Z" fill="url(#paint0_linear_710_112)"/>
<defs>
<linearGradient id="paint0_linear_710_112" x1="0" y1="18" x2="18" y2="18" gradientUnits="userSpaceOnUse">
<stop offset="0.0001" stop-color="#6ED34B"/>
<stop offset="1" stop-color="#2BB048"/>
</linearGradient>
</defs>
</svg>
